<?xml version="1.0" encoding="UTF-8" ?>
<!DOCTYPE svg PUBLIC "-//W3C//DTD SVG 1.1//EN" "http://www.w3.org/Graphics/SVG/1.1/DTD/svg11.dtd">
<svg width="200pt" height="200pt" viewBox="0 0 200 200" version="1.1" xmlns="http://www.w3.org/2000/svg">
<g id="#00a9ffff">
<path fill="#00a9ff" stroke="#00a9ff" stroke-width="0.09375" opacity="1.00" d=" M 87.46 0.00 L 109.78 0.00 C 120.11 1.85 130.12 5.88 138.44 12.34 C 150.26 21.21 158.63 34.46 161.86 48.86 C 164.19 60.54 163.18 72.75 159.12 83.94 C 152.50 103.28 143.43 121.65 134.05 139.78 C 123.33 159.93 112.11 179.82 100.00 199.16 C 87.75 179.62 76.44 159.50 65.61 139.15 C 56.04 120.48 46.61 101.62 40.17 81.60 C 35.18 66.80 35.75 49.94 42.64 35.82 C 49.51 20.79 62.67 8.85 78.18 3.22 C 81.25 2.07 84.57 1.61 87.46 0.00 M 89.03 26.99 C 79.02 30.25 71.01 38.32 67.11 48.02 C 66.80 49.37 66.40 50.69 66.01 52.03 C 64.30 58.34 64.82 65.06 66.73 71.26 C 69.51 78.73 74.45 85.51 81.30 89.72 C 85.94 92.91 91.47 94.26 96.93 95.24 C 98.97 95.35 101.03 95.35 103.08 95.25 C 105.64 94.39 108.43 94.46 110.94 93.42 C 121.38 90.09 129.62 81.50 133.27 71.26 C 135.18 65.05 135.68 58.35 134.01 52.02 C 133.61 50.69 133.12 49.38 132.88 48.01 C 129.35 39.33 122.65 31.92 113.99 28.17 C 106.18 24.77 97.12 24.28 89.03 26.99 Z" />
</g>
</svg>
