<?xml version="1.0" encoding="utf-8"?>
<!-- Generator: Adobe Illustrator 19.2.1, SVG Export Plug-In . SVG Version: 6.00 Build 0)  -->
<svg version="1.1" id="Layer_1" xmlns="http://www.w3.org/2000/svg" xmlns:xlink="http://www.w3.org/1999/xlink" x="0px" y="0px"
	 viewBox="0 0 100 100" style="enable-background:new 0 0 100 100;" xml:space="preserve">
<style type="text/css">
	.st0{display:none;}
	.st1{display:inline;}
	.st2{display:inline;fill:none;stroke:#FFFFFF;stroke-miterlimit:10;}
	.st3{display:inline;fill:none;}
	.st4{display:inline;stroke:#FFFFFF;stroke-miterlimit:10;}
	.st5{fill:#26C281;}
</style>
<g class="st0">
	<rect x="-192" y="0" class="st1" width="185" height="99"/>
	<rect y="-36" class="st1" width="100" height="30"/>
	<text transform="matrix(1 0 0 1 66 -19.5)" class="st1" style="font-family:'ArialMT'; font-size:2.4px;">http://thenounproject.com</text>
	<text transform="matrix(1 0 0 1 7.166 -24.5)" class="st1" style="font-family:'ArialMT'; font-size:6.1578px;">The Noun Project</text>
	<text transform="matrix(1 0 0 1 8.286 -19.7)" class="st1" style="font-family:'ArialMT'; font-size:4px;">Icon Template</text>
	<text transform="matrix(1 0 0 1 -178.5 10.5)" class="st1" style="font-family:'ArialMT'; font-size:6.1578px;">Reminders</text>
	<line class="st2" x1="8" y1="-14.5" x2="18" y2="-14.5"/>
	<line class="st2" x1="-179" y1="16.5" x2="-162" y2="16.5"/>
	<g class="st1">
		<g>
			<g>
				<rect x="-170.8" y="31.3" width="8.7" height="8.6"/>
				<path d="M-164.5,42.3h4.7v-4.7h-4.7V42.3z M-159.3,42.7h-5.6v-5.6h5.6V42.7L-159.3,42.7z M-166.2,44.1h8.3v-8.2h-8.3V44.1
					L-166.2,44.1z M-157.5,44.5h-9.2v-9.1h9.2V44.5L-157.5,44.5z"/>
				<polygon points="-166.1,44.1 -166.3,44 -158,35.8 -157.9,35.9 				"/>
			</g>
		</g>
	</g>
	<rect x="-179" y="58" class="st3" width="35" height="32.5"/>
	<text transform="matrix(1 0 0 1 -179 60.1299)" class="st1" style="font-family:'ArialMT'; font-size:3px;">Strokes</text>
	<text transform="matrix(1 0 0 1 -179 65.1299)" class="st1" style="font-family:'ArialMT'; font-size:2.4px;">Try to keep strokes at 4px</text>
	<text transform="matrix(1 0 0 1 -179 70.1299)" class="st1" style="font-family:'ArialMT'; font-size:2.4px;">Minimum stroke weight is 2px</text>
	<text transform="matrix(1 0 0 1 -179 74.6299)" class="st1" style="font-family:'ArialMT'; font-size:2.4px;">For thicker strokes use even </text>
	<text transform="matrix(1 0 0 1 -179 77.6299)" class="st1" style="font-family:'ArialMT'; font-size:2.4px;">numbers: 6px, 8px etc.</text>
	<text transform="matrix(1 0 0 1 -179 82.1299)" class="st1" style="font-family:'ArialMT'; font-size:2.4px;">Remember to expand strokes </text>
	<text transform="matrix(1 0 0 1 -179 85.1299)" class="st1" style="font-family:'ArialMT'; font-size:2.4px;">before saving as an SVG </text>
	<rect x="-136.5" y="58" class="st3" width="35" height="32.5"/>
	<text transform="matrix(1 0 0 1 -136.5 60.1299)" class="st1" style="font-family:'ArialMT'; font-size:3px;">Size</text>
	<text transform="matrix(1 0 0 1 -136.5 65.1299)" class="st1" style="font-family:'ArialMT'; font-size:2.4px;">Cannot be wider or taller than </text>
	<text transform="matrix(1 0 0 1 -136.5 68.6299)" class="st1" style="font-family:'ArialMT'; font-size:2.4px;">100px (artboard size)</text>
	<text transform="matrix(1 0 0 1 -136.5 73.6299)" class="st1" style="font-family:'ArialMT'; font-size:2.4px;">Scale your icon to fill as much of </text>
	<text transform="matrix(1 0 0 1 -136.5 76.6299)" class="st1" style="font-family:'ArialMT'; font-size:2.4px;">the artboard as possible</text>
	<rect x="-94" y="58" class="st3" width="35" height="32.5"/>
	<text transform="matrix(1 0 0 1 -94 60.1299)" class="st1" style="font-family:'ArialMT'; font-size:3px;">Ungroup</text>
	<text transform="matrix(1 0 0 1 -94 65.1299)" class="st1" style="font-family:'ArialMT'; font-size:2.4px;">If your design has more than one </text>
	<text transform="matrix(1 0 0 1 -94 68.1299)" class="st1" style="font-family:'ArialMT'; font-size:2.4px;">shape, make sure to ungroup</text>
	<rect x="-50" y="58" class="st3" width="35" height="32.5"/>
	<text transform="matrix(1 0 0 1 -50 60.1299)" class="st1" style="font-family:'ArialMT'; font-size:3px;">Save as</text>
	<text transform="matrix(1 0 0 1 -50 65.1299)" class="st1" style="font-family:'ArialMT'; font-size:2.4px;">Save as .SVG and make sure “Use </text>
	<text transform="matrix(1 0 0 1 -50 68.1299)" class="st1" style="font-family:'ArialMT'; font-size:2.4px;">Artboards” is checked</text>
	<text transform="matrix(1.0074 0 0 1 -125.542 30.5931)" class="st1" style="font-family:'ArialMT'; font-size:2.5731px;">100px</text>
	<text transform="matrix(1.0074 0 0 1 -41 38.9998)" class="st1" style="font-family:'ArialMT'; font-size:5.1462px;">.SVG</text>
	<rect x="-126.5" y="34.8" class="st1" width="10.3" height="10.2"/>
	<rect x="-126.5" y="31.8" class="st1" width="0.5" height="2.3"/>
	<rect x="-116.8" y="31.8" class="st1" width="0.5" height="2.3"/>
	<rect x="-127" y="32.3" class="st1" width="11.2" height="0.6"/>
	<g class="st1">
		<rect x="-83.8" y="33.8" width="10.3" height="10.2"/>
		<rect x="-76.8" y="28.7" width="3.3" height="3.3"/>
	</g>
	<rect x="-178.5" y="22.5" class="st4" width="30" height="30"/>
	<rect x="-136.5" y="22.5" class="st4" width="30" height="30"/>
	<rect x="-93.5" y="22.5" class="st4" width="30" height="30"/>
	<rect x="-49.5" y="22.5" class="st4" width="30" height="30"/>
</g>
<path class="st5" d="M84.7,81.8c0,0.1,0,0.2,0,0.2v3.8c0,1-0.8,1.9-1.9,1.9h-9.6c-0.2,0-0.4,0-0.6-0.1c-0.8-0.2-1.3-0.9-1.3-1.8
	v-3.2V47.7l0.1-0.1c0,0,0,0,0.1-0.1l0.1-0.1l0,0l0,0l0,0l0,0c0.1-0.1,0.4-0.4,0.8-0.8l8.3-8.3l0,0l0,0l0,0l4-4l0,0l0,0l0,0l0,0v29.6
	V81.8z M54,64.9V82l0,0v3.8c0,1,0.8,1.9,1.9,1.9h9.6c1,0,1.9-0.8,1.9-1.9V82l0,0V51.7L54.9,64.2C54.6,64.5,54.3,64.7,54,64.9z
	 M39.9,58.8L36.6,62v20l0,0v3.8c0,1,0.8,1.9,1.9,1.9h9.6c1,0,1.9-0.8,1.9-1.9V82l0,0V66.2c-1.8,0-3.5-0.7-4.8-2L39.9,58.8z
	 M23.4,75.3L23,75.6c-0.1,0-0.3,0.3-0.7,0.6l-3.1,3.1V82l0,0v3.8c0,1,0.8,1.9,1.9,1.9h9.6c1,0,1.9-0.8,1.9-1.9V82l0,0V66L24,74.7
	C23.8,74.9,23.6,75.1,23.4,75.3z M93.3,12.8c-0.4-0.5-1-0.6-1.5-0.6c-0.3,0-0.6,0-0.9,0.1l-17.8,3.9c-1.1,0.2-1.6,0.7-1.7,1
	s0.1,1,0.9,1.8l4.3,4.3l-6.2,6.2L52,47.8l-2.3,2.3l-8.4-8.4c-0.7-0.7-1.9-0.7-2.7,0l-0.7,0.7L35,45.2L12.2,68l-5.4,5.4
	c-0.4,0.4-0.6,1-0.5,1.6c-0.1,0.4,0,0.7,0.3,1l3.2,3.2c0.1,0.1,0.2,0.2,0.4,0.3l0.2,0.2c0.7,0.7,1.9,0.7,2.7,0L38.6,54l0,0l1.3-1.3
	l4.6,4.6c0.1,0.1,0.1,0.1,0.2,0.2c0,0.1,0.1,0.1,0.2,0.2l3.5,3.5c0.7,0.7,1.9,0.7,2.7,0l7.2-7.2l18.4-18.4l6.2-6.2l4.3,4.3
	c0.9,0.9,1.5,0.9,1.6,0.9c0.6,0,1-0.9,1.2-1.7l3.9-17.8C93.8,14.1,93.7,13.3,93.3,12.8z"/>
</svg>
