<?xml version="1.0" encoding="utf-8"?>
<!-- Generator: Adobe Illustrator 17.0.0, SVG Export Plug-In . SVG Version: 6.00 Build 0)  -->
<!DOCTYPE svg PUBLIC "-//W3C//DTD SVG 1.1//EN" "http://www.w3.org/Graphics/SVG/1.1/DTD/svg11.dtd">
<svg version="1.1" id="Layer_1" xmlns="http://www.w3.org/2000/svg" xmlns:xlink="http://www.w3.org/1999/xlink" x="0px" y="0px"
	 width="539px" height="481px" viewBox="0 0 539 481" enable-background="new 0 0 539 481" xml:space="preserve">
<g>
	<g>
		<path fill-rule="evenodd" clip-rule="evenodd" fill="#404041" d="M441.593,209.595c19.965,26.05,21.336,53.159,3.968,80.994
			c-1.177,1.887-1.69,3.015,0.263,4.652c2.459,2.061,4.649,4.445,6.96,6.69c1.519,4.165,2.61,8.294-1.167,11.927
			c-3.504,3.366-7.38,2.972-11.388,1.055c-1.555-1.805-3.104-3.606-4.655-5.408c-0.447,0.201-0.897,0.401-1.345,0.602
			c0,17.74,0,35.486,0,53.225c-0.668,0.164-1.335,0.329-2.005,0.493c-1.331-0.049-2.663-0.148-3.991-0.148
			c-85.343-0.006-170.677-0.006-256.021,0.007c-1.512,0-3.028,0.177-4.543,0.273c-2.088-0.016-4.185,0.092-6.256-0.082
			c-3.041-0.26-3.929,1.091-3.883,3.988c0.178,11.191,0.178,22.378,0.247,33.569c-0.082,19.149-0.355,38.309-0.135,57.459
			c0.063,5.47-1.483,9.448-6.075,12.282c-43.524,0-87.047,0-130.573,0c-4.639-3.797-5.398-8.748-5.379-14.524
			c0.184-51.137,0.105-102.271,0.108-153.405c0-9.987,2.85-12.825,12.969-12.881c6.105-0.036,12.219-0.188,18.311,0.059
			c3.294,0.135,4.422-1.052,4.192-4.195c-0.155-2.084,0.03-4.192,0.03-6.289c0.007-47.702,0-95.403,0.007-143.102
			c0-10.793,2.65-13.403,13.646-13.403c92.731,0,185.458,0,278.195-0.013c2.469,0,4.944-0.171,7.413-0.266
			c2.821,0.776,5.645,1.009,8.482,0.049c7.032-0.026,14.061-0.059,21.099-0.092c1.647,0.996,3.311,0.763,4.977,0.046
			c12.522,0.095,25.048,0.161,37.566,0.282c8.34,0.082,11.654,3.478,11.707,11.842c0.076,11.953,0.151,23.91,0.23,35.863
			c-0.01,1.627-0.017,3.252-0.02,4.876c0,6.772-0.003,13.544-0.003,20.314C432.493,203.09,437.769,205.956,441.593,209.595z
			 M363.34,313.385c-5.227-3.301-10.454-6.605-15.675-9.905c-6.608-5.931-11.496-13.252-16.566-20.432
			c-9.06-20.123-8.722-40.216,0.24-60.273c4.56-7.561,10.096-14.347,16.313-20.6c5.092-3.6,10.267-7.074,15.859-9.872
			c5.444-1.719,10.888-3.439,16.326-5.158c11.647-0.694,23.315-0.98,34.311,3.669c4.468,1.884,4.576,0.03,4.547-3.495
			c-0.105-14.685-0.194-29.374,0.052-44.056c0.069-4.149-1.348-4.971-5.201-4.967c-113.863,0.089-227.725,0.105-341.588-0.039
			c-4.504-0.006-5.237,1.394-5.224,5.464c0.135,46.153,0.082,92.313,0.096,138.466c0,1.519,0.168,3.038,0.253,4.556
			c-0.921,3.468,1.124,3.662,3.764,3.649c14.679-0.066,29.361-0.036,44.049-0.036c10.286,0,20.58-0.105,30.86,0.042
			c8.945,0.125,11.7,3.143,11.707,12.273c0.01,11.634,0.003,23.266,0.003,34.893c0,9.409,0,9.422,9.011,10.425
			c1.891,0.217,3.791,0.414,5.684,0.414c80.278,0.023,160.559,0.026,240.833-0.026c1.752,0,3.823,0.957,5.286-0.95
			c0.072-6.874,0.141-13.748,0.214-20.629c0-4.333,0-8.669,0-13.561c-12.769,5.306-25.465,6.838-38.556,5.004
			C374.406,316.624,368.873,315.003,363.34,313.385z M354.014,284.544c4.099,5.832,9.323,10.161,16.283,12.177
			c9.297,5.174,19.12,6.111,29.36,3.642c1.522,0.644,3.015,0.141,4.465-0.224c22.128-5.562,37.119-26.557,36.058-50.48
			c-0.99-22.329-18.196-41.518-40.423-45.072c-10.277-1.788-20.201-1.108-29.466,4.208c-6.897,2.071-12.17,6.315-16.273,12.144
			C337.776,237.378,337.773,267.837,354.014,284.544z M31.743,380.69c0,22.523,0.128,45.046-0.102,67.565
			c-0.046,4.55,1.24,5.713,5.74,5.694c32.829-0.194,65.661-0.191,98.491,0c4.445,0.02,5.727-1.065,5.707-5.628
			c-0.178-45.046-0.161-90.094-0.013-135.143c0.02-4.215-0.963-5.484-5.346-5.457c-33.02,0.191-66.043,0.181-99.062,0.013
			c-4.211-0.023-5.553,1.006-5.513,5.388C31.864,335.642,31.743,358.168,31.743,380.69z M90.675,462.858
			c-0.332-2.229-1.466-4.024-3.833-4.06c-2.272-0.03-3.932,1.384-3.968,3.849c-0.036,2.157,1.295,3.554,3.396,3.771
			C88.722,466.665,90.01,465.114,90.675,462.858z"/>
		<path fill-rule="evenodd" clip-rule="evenodd" fill="#FFFFFF" d="M167.668,363.957c1.516-0.095,3.031-0.273,4.543-0.273
			c85.343-0.013,170.677-0.013,256.021-0.007c1.328,0,2.66,0.099,3.991,0.148c0.71,0.224,1.423,0.447,2.13,0.664
			c0.039,6.851-0.043,13.703,0.141,20.554c0.398,14.751-3.84,15.376-16.07,16.083c-12.897,0.74-25.876,0.158-38.815,0.164
			c-29.121,0.023-58.238,0.046-87.359,0.069c-33.059,0.003-66.118,0.013-99.178,0.023c-8.534-0.056-17.069-0.105-25.603-0.161
			C167.54,388.804,167.599,376.377,167.668,363.957z"/>
		<path fill-rule="evenodd" clip-rule="evenodd" fill="#FFFFFF" d="M284.351,79.594c-10.214,0-17.651,0.023-25.087-0.006
			c-12.749-0.046-21.809-8.935-21.812-21.359c-0.007-12.217,9.872-22.5,22.121-21.977c4.031,0.174,3.984-1.226,4.567-4.063
			c2.469-12.052,9.662-20.152,21.513-23.529c11.96-3.409,22.036,0.332,30.531,9.123c3.278,3.393,3.685,9.284,7.002,11.381
			c3.265,2.064,8.669-0.855,13.203,0.217c13.758,3.255,21.606,14.429,20.198,28.887c-1.154,11.828-12.881,21.858-25.915,22.233
			C314.291,80.975,297.965,78.654,284.351,79.594z"/>
		<path fill-rule="evenodd" clip-rule="evenodd" fill="#FFFFFF" d="M440.228,314.914c4.007,1.917,7.883,2.311,11.388-1.055
			c3.777-3.633,2.686-7.762,1.167-11.927c7.18-1.345,12.917,1.019,18.019,6.187c16.339,16.566,32.908,32.911,49.296,49.421
			c5.796,5.835,7.17,13.176,4.132,19.893c-2.926,6.447-9.376,10.398-16.546,10.027c-5.01-0.253-8.978-2.574-12.486-6.105
			c-16.26-16.378-32.536-32.74-48.974-48.938C441.191,327.449,438.91,321.89,440.228,314.914z"/>
		<path fill-rule="evenodd" clip-rule="evenodd" fill="#404041" d="M193.074,401.382c33.059-0.01,66.119-0.02,99.178-0.023
			c2.331,9.899,4.665,19.797,6.996,29.696c-37.445,0.006-74.896,0.01-112.337,0.016c0.47-7.946,3.639-15.303,4.974-23.062
			C192.262,405.797,192.676,403.591,193.074,401.382z"/>
		<path fill-rule="evenodd" clip-rule="evenodd" fill="#FFFFFF" d="M441.593,209.595c-3.824-3.639-9.1-6.506-7.068-13.262
			c1.443,2.222,2.955,4.405,4.307,6.677c1.055,1.782,2.265,2.416,4.188,1.298c3.459-2.012,6.947-3.971,10.431-5.94
			c1.703-0.97,1.822-2.223,0.802-3.807c-0.927-1.44-1.637-3.028-2.607-4.432c-3.432-4.971,2.281-5.875,3.837-8.584
			c1.4-2.443,3.264-3.015,6.151-1.417c6.749,3.735,6.851,3.547,10.822-3.396c0.661-1.154,1.223-2.397,2.032-3.439
			c2.505-3.228,1.851-5.461-1.894-6.986c-1.042-0.427-1.973-1.144-2.949-1.736c-4.826-2.929-0.424-6.44-0.539-9.659
			c-0.082-2.44,1.397-3.446,4.05-3.574c8.258-0.404,8.251-0.539,8.251-8.863c0-0.953-0.115-1.926,0.023-2.857
			c0.71-4.81-1.447-6.966-6.088-6.082c-7.124,1.358-6.315-4.376-8.012-8.225c-1.989-4.504,1.923-4.839,4.04-5.928
			c3.827-1.972,5.204-4.05,2.134-7.748c-0.96-1.16-1.775-2.532-2.311-3.938c-2.176-5.73-5.575-6.555-10.227-2.722
			c-4.856,4.004-6.282-1.43-9.073-3.219c-3.206-2.051-2.87-4.3-1.019-7.16c1.154-1.782,3.876-4.33,1.986-5.941
			c-3.712-3.153-8.041-6.078-12.618-7.525c-3.054-0.97-3.899,3.587-5.056,5.914c-2.554,5.112-5.928,1.374-8.847,1.131
			c-2.571-0.217-5.066-0.736-4.76-4.741c0.687-8.919-0.536-7.443-7.831-7.551c-1.335-0.023-2.692,0.158-4.004-0.033
			c-4.793-0.694-6.917,1.358-5.953,6.039c1.433,6.947-4.307,6.019-7.903,7.736c-4.428,2.107-5.375-1.404-6.532-3.932
			c-1.913-4.155-4.234-4.941-7.85-2.051c-1.177,0.94-2.541,1.739-3.948,2.291c-5.214,2.048-6.772,4.915-2.83,9.731
			c4.297,5.25-1.756,6.914-3.698,10.037c-2.183,3.501-4.54,1.828-6.595,0.194c-4.172-3.32-6.522-2.436-9.057,2.259
			c-5.119,9.465-5.388,9.317,3.593,15.047c-2.837,0.96-5.661,0.727-8.482-0.049c-4.307-3.133-5.155-6.782-1.834-11.217
			c1.134-1.519,1.999-3.245,2.939-4.905c4.938-8.672,4.964-8.758,13.88-5.01c1.969,0.822,3.11,0.424,4.497-0.907
			c1.45-1.394,1.624-2.574,0.773-4.504c-4.001-9.011-3.919-9.047,4.678-14.031c1.486-0.865,2.988-1.7,4.481-2.535
			c7.124-4.001,7.972-3.902,12.312,2.89c1.387,2.176,2.755,2.725,5.138,2.104c2.37-0.618,2.679-2.104,2.785-4.228
			c0.421-8.443,1.039-8.968,9.343-8.988c2.098-0.006,4.198-0.006,6.302,0c8.459,0.013,9.11,0.516,9.481,8.883
			c0.102,2.281,0.743,3.363,2.952,3.994c2.239,0.641,3.435,0.036,4.724-1.831c5.319-7.699,5.704-7.716,14.018-2.847
			c1.643,0.963,3.33,1.864,4.977,2.814c6.44,3.692,6.986,5.355,3.547,11.773c-1.049,1.956-1.92,3.449,0.21,5.457
			c2.038,1.93,3.534,1.259,5.549,0.224c7.252-3.735,8.133-3.429,12.18,3.445c0.874,1.476,1.756,2.952,2.61,4.438
			c4.885,8.492,4.951,8.577-2.712,14.514c-1.782,1.384-1.601,2.627-1.259,4.412c0.414,2.137,1.601,2.587,3.58,2.771
			c9.609,0.878,9.623,0.963,9.629,10.589c0.003,1.91,0.013,3.82,0,5.727c-0.059,7.706-0.819,8.593-8.37,8.837
			c-2.351,0.075-3.955,0.381-4.57,3.077c-0.585,2.565,0.473,3.715,2.505,4.974c6.7,4.145,6.93,5.391,3.041,12.315
			c-0.838,1.499-1.719,2.968-2.587,4.451c-4.984,8.498-5.033,8.61-14.002,4.704c-2.14-0.93-3.034-0.158-4.33,1.134
			c-1.358,1.355-1.802,2.341-0.828,4.366c4.261,8.85,4.07,9.185-4.527,14.018C448.276,205.933,444.929,207.754,441.593,209.595z"/>
		<path fill-rule="evenodd" clip-rule="evenodd" fill="#E7E7E7" d="M186.91,431.072c37.441-0.007,74.893-0.01,112.337-0.016
			c2.281,0.016,4.616-0.257,6.841,0.118c3.85,0.654,5.964,3.061,5.812,7.137c-0.168,4.534-3.685,3.015-5.967,3.018
			c-42.06,0.079-84.13,0.089-126.194-0.023c-2.239,0-5.724,1.759-6.358-2.577c-0.631-4.294,1.976-6.48,5.579-7.325
			C181.498,430.805,184.25,431.147,186.91,431.072z"/>
		<path fill-rule="evenodd" clip-rule="evenodd" fill="#FFFFFF" d="M470.253,43.698c2.745-0.118,3.919,1.141,5.224,2.292
			c2.761,2.443,5.155,2.42,5.086-1.847c-0.082-5.74,3.067-6.437,7.702-6.404c4.56,0.03,7.887,0.536,7.775,6.342
			c-0.089,4.185,2.377,4.612,5.02,1.92c4.053-4.136,6.776-1.926,10.043,1.164c3.587,3.38,4.524,6.102,0.486,9.902
			c-3.001,2.837-1.203,5.152,2.249,5.05c5.181-0.151,6.602,2.088,6.493,6.874c-0.099,4.658-0.25,8.354-6.529,8.166
			c-3.669-0.105-5.083,2.239-2.035,5.03c3.922,3.593,2.926,6.289-0.467,9.455c-3.084,2.88-5.671,5.95-9.964,1.663
			c-2.903-2.896-5.349-2.59-5.329,2.041c0.03,5.467-3.126,6.013-7.492,5.977c-4.399-0.039-7.995-0.131-7.939-6.105
			c0.039-4.626-2.647-4.849-5.415-1.986c-4.718,4.889-7.187,0.717-10.257-2.035c-3.107-2.801-3.978-5.48-0.414-8.557
			c1.124-0.973,2.413-2.009,1.591-3.866c-0.776-1.752-2.298-1.828-3.856-1.733c-6.141,0.362-5.829-3.803-5.914-8.035
			c-0.079-4.198,0.611-7.308,5.845-6.769c1.568,0.158,3.015-0.043,3.876-1.713c0.934-1.825-0.217-2.85-1.315-3.929
			c-1.66-1.624-3.767-3.488-2.124-5.845C464.717,47.716,467.035,44.556,470.253,43.698z M471.492,48.08
			c-2.179,0.588-3.176,2.048-4.27,3.32c-1.368,1.591,0.431,2.285,1.134,3.255c3.758,5.174,1.913,10.431-4.149,11.155
			c-2.482,0.296-3.827,0.71-3.827,3.573c0,2.785,1.2,3.304,3.725,3.699c6.164,0.973,8.186,6.371,4.28,11.256
			c-1.404,1.759-2.176,2.811-0.168,4.622c1.726,1.555,2.735,2.446,5.142,0.539c5.323-4.208,10.602-2.005,11.27,4.603
			c0.276,2.758,1.144,3.593,3.78,3.534c2.295-0.056,3.238-0.615,3.554-3.162c0.884-7.118,5.704-9.195,11.411-4.876
			c2.101,1.594,3.136,1.233,4.718-0.358c1.522-1.529,2.17-2.479,0.447-4.629c-4.294-5.359-2.446-10.527,4.057-11.526
			c2.627-0.404,3.62-1.108,3.633-3.794c0.016-2.946-1.516-3.189-3.915-3.478c-5.802-0.697-8.041-6.197-4.372-10.717
			c1.489-1.834,2.577-2.906,0.352-5.066c-2.15-2.078-3.39-1.838-5.648-0.036c-4.622,3.692-10.073,1.318-10.688-4.527
			c-0.243-2.357-0.309-3.882-3.366-3.873c-2.969,0-3.731,0.917-3.984,3.87c-0.493,5.862-5.927,8.028-10.734,4.596
			C472.982,49.419,472.176,48.652,471.492,48.08z"/>
		<path fill-rule="evenodd" clip-rule="evenodd" fill="#FFFFFF" d="M451.478,60.149c-1.676,1.673-2.262,5.174-5.47,3.353
			c-2.824-1.598-4.52-2.213-5.066,1.723c-0.276,1.972-1.565,2.364-3.258,2.39c-1.989,0.027-3.116-0.536-3.333-2.847
			c-0.289-3.005-2.295-3.419-4.392-1.699c-1.821,1.502-2.926,0.973-4.3-0.437c-1.374-1.417-1.923-2.587-0.372-4.359
			c2.117-2.429,0.897-3.84-1.87-4.109c-2.314-0.224-2.712-1.565-2.722-3.498c-0.013-2.012,0.578-3.146,2.844-3.373
			c2.867-0.286,3.725-1.91,1.713-4.214c-1.542-1.762-0.97-2.965,0.421-4.366c1.381-1.394,2.502-1.956,4.333-0.454
			c2.673,2.2,4.191,0.977,4.432-2.147c0.164-2.14,1.529-2.298,3.169-2.337c1.706-0.039,2.992,0.348,3.307,2.298
			c0.559,3.462,2.091,4.346,4.915,1.808c1.726-1.552,2.719,0.023,3.774,1.026c1.108,1.055,2.314,2.101,0.907,3.83
			c-2.281,2.808-1.687,4.007,1.999,4.836c3.458,0.766,2.975,4.898,1.154,5.648C449.67,54.863,447.273,55.931,451.478,60.149z
			 M442.615,50.816c-0.145-3.166-1.913-5.023-4.931-5.033c-3.041-0.013-4.997,1.986-4.98,5.02c0.023,2.719,1.683,4.57,4.622,4.685
			C440.504,55.609,442.142,53.86,442.615,50.816z"/>
		<path fill-rule="evenodd" clip-rule="evenodd" fill="#FFFFFF" d="M167.668,363.957c-0.069,12.42-0.128,24.847-0.197,37.264
			c-3.235,0.069-6.464,0.141-9.695,0.21c-0.069-11.191-0.069-22.378-0.247-33.569c-0.046-2.896,0.842-4.247,3.883-3.988
			C163.483,364.049,165.58,363.941,167.668,363.957z"/>
		<path fill-rule="evenodd" clip-rule="evenodd" fill="#A8D1D5" d="M434.353,364.489c-0.707-0.217-1.42-0.44-2.13-0.664
			c0.671-0.165,1.338-0.329,2.005-0.493C434.271,363.717,434.314,364.102,434.353,364.489z"/>
		<path fill-rule="evenodd" clip-rule="evenodd" fill="#FFFFFF" d="M331.34,222.775c-8.962,20.057-9.3,40.15-0.24,60.276
			c0.046,13.361,0.112,26.718,0.135,40.072c0.026,12.92,0,12.844,12.949,11.963c2.433-0.168,3.334-0.792,3.288-3.301
			c-0.095-5.142,0.095-10.293,0.168-15.438c5.201,3.136,10.402,6.276,15.599,9.412c0.575,9.28,0.575,9.28,10.349,9.258
			c0.944,0,1.903-0.122,2.824,0.023c3.051,0.48,3.314-1.565,3.501-3.722c13.17,1.147,25.988-0.749,38.582-4.52
			c-0.072,6.881-0.141,13.755-0.214,20.629c-12.397-0.013-24.795-0.039-37.195-0.039c-68.86-0.007-137.72-0.092-206.573,0.151
			c-6.029,0.02-7.298-1.749-7.127-7.358c0.401-13.337,0.158-26.701,0.122-40.051c-0.033-10.796-2.712-13.41-13.568-13.416
			c-7.127-0.006-14.248-0.003-21.375-0.003c-0.161-0.585-0.319-1.174-0.483-1.762c14.198-9.314,28.397-18.63,42.599-27.944
			c3.981,2.433,7.647,1.989,11.016-1.207c3.748,2.226,7.463,4.504,11.253,6.654c2.272,1.289,5.033,1.992,5.349,5.243
			c2.479,5.204,5.953,7.032,10.01,5.263c3.938-1.709,4.741-5.342,2.463-11.105c9.425-13.558,18.357-27.421,26.721-41.653
			c2.597,0.408,5.132,0.316,7.512-0.963c6.522,5.003,13.041,10.004,19.564,15.007c-0.585,3.646,0.138,6.94,3.662,8.603
			c2.587,1.223,5.579,1.292,7.89-0.911c3.074-2.919,2.577-6.348,0.956-9.81c1.976-0.457,3.136-2.051,4.567-3.278
			c12.529-10.714,25.116-21.349,37.599-32.125c14.333-12.384,28.572-24.877,42.859-37.317c1.295,0.279,2.59,0.763,3.892,0.802
			c4.386,0.138,7.394-2.788,7.282-6.907c-0.112-4.234-3.751-7.091-8.219-6.456c-4.474,0.638-6.2,4.149-4.954,10.063
			c-0.795,0.513-1.66,0.94-2.374,1.549c-15.063,12.795-30.166,25.534-45.131,38.441c-12.805,11.046-25.442,22.286-38.148,33.441
			c-2.538-0.707-4.984-0.44-7.331,0.74c-6.621-4.843-13.242-9.685-19.863-14.524c0.036-2.423,0.737-4.951-1.085-7.081
			c-2.331-2.716-5.132-3.909-8.538-2.17c-4.79,2.439-4.658,6.332-2.922,10.619c-8.896,14.06-17.795,28.124-26.691,42.188
			c-2.844-0.677-5.448-0.125-7.847,1.512c-5.895-3.475-12.732-5.444-17.427-10.849c-1.46-4.399-4.304-6.776-9.064-5.553
			c-4.727,1.22-5.227,4.938-4.721,9.044c-15.941,8.879-30.741,19.574-46.173,29.272c-3.333,2.094-6.601,3.281-10.622,3.245
			c-16.355-0.161-32.72-0.049-49.082-0.039c-0.086-1.519-0.253-3.038-0.253-4.556c-0.013-46.153,0.039-92.313-0.096-138.466
			c-0.013-4.07,0.72-5.47,5.224-5.464c113.863,0.145,227.725,0.128,341.588,0.039c3.853-0.003,5.27,0.819,5.201,4.967
			c-0.246,14.682-0.158,29.371-0.052,44.056c0.03,3.524-0.079,5.379-4.547,3.495c-10.997-4.648-22.664-4.363-34.311-3.669
			c-0.063-2.647-0.178-5.293-0.184-7.939c-0.02-12.871-0.003-12.775-12.69-12.091c-2.695,0.144-3.609,0.914-3.551,3.613
			c0.161,7.19,0.082,14.383,0.099,21.576c-5.592,2.798-10.766,6.273-15.859,9.872c-0.108-2.419-0.395-4.451-3.774-4.126
			c-3.011,0.286-6.079,0.197-9.106,0.026c-2.751-0.158-3.636,0.953-3.57,3.626C331.362,208.724,331.306,215.75,331.34,222.775z
			 M299.168,281.079c0,14.475,0,28.953,0,43.428c0,10.54,0.01,10.29,10.273,10.632c4.616,0.148,6.079-0.881,6.039-5.812
			c-0.253-30.097-0.128-60.191-0.128-90.288c0-11.365,0-11.144-11.371-11.266c-4.28-0.046-4.935,1.562-4.889,5.306
			C299.277,249.075,299.168,265.079,299.168,281.079z M251.029,290.314c0-11.635,0-23.272,0-34.913
			c0-10.425-0.003-10.198-10.655-10.438c-4.474-0.102-5.812,1.138-5.769,5.7c0.227,24.42,0.105,48.842,0.105,73.265
			c0,11.184,0.007,10.987,10.941,11.194c4.169,0.079,5.599-0.861,5.49-5.316C250.825,316.653,251.029,303.483,251.029,290.314z
			 M283.283,297.737c0-8.587,0-17.174,0-25.764c0-11.01-0.003-10.813-11.115-10.973c-4.225-0.059-5.54,1.062-5.484,5.404
			c0.23,18.89,0.096,37.787,0.096,56.677c0,12.348,0,12.229,12.394,12.022c3.205-0.053,4.234-0.904,4.178-4.165
			C283.171,319.871,283.283,308.806,283.283,297.737z M186.397,307.632c0-5.724,0-11.44,0-17.167
			c0-11.194-0.003-10.961-11.082-11.155c-4.468-0.076-5.411,1.433-5.326,5.576c0.25,12.772,0.092,25.557,0.092,38.335
			c0,12.503-0.01,12.391,12.519,11.878c3.041-0.125,3.899-1.111,3.84-4.004C186.295,323.278,186.394,315.456,186.397,307.632z
			 M202.15,314.013c0,2.857,0,5.714,0,8.571c0,13.14-0.006,13.038,12.976,12.509c2.962-0.118,3.945-0.966,3.889-3.945
			c-0.164-8.758-0.056-17.516-0.056-26.27c0-13.193,0.006-13.107-13.265-12.269c-2.722,0.174-3.646,1.026-3.587,3.705
			C202.249,302.208,202.15,308.112,202.15,314.013z M149.307,182.608c18.117,0,36.238,0.036,54.359-0.049
			c1.818-0.013,4.816,1.196,4.984-2.068c0.171-3.376-2.86-2.377-4.701-2.38c-36.238-0.059-72.476-0.053-108.721-0.026
			c-1.982,0.003-4.882-0.618-5.02,2.298c-0.164,3.373,2.965,2.163,4.741,2.176C113.069,182.645,131.183,182.608,149.307,182.608z
			 M146.204,206.548c16.977,0,33.96,0.03,50.94-0.049c1.821-0.01,4.82,1.072,4.652-2.403c-0.141-2.903-2.808-1.999-4.514-2.002
			c-33.957-0.053-67.923-0.056-101.883-0.003c-1.91,0.003-4.945-0.881-5.02,2.143c-0.072,3.084,2.972,2.272,4.882,2.278
			C112.24,206.571,129.217,206.548,146.204,206.548z M140.888,190.485c-10.477,0-20.958-0.003-31.432,0
			c-5.53,0-11.056-0.003-16.576,0.023c-1.371,0.007-2.837,0.095-2.804,1.986c0.033,1.627,1.184,2.292,2.643,2.443
			c0.94,0.099,1.9,0.089,2.853,0.089c30.291,0.003,60.579,0.02,90.87-0.049c1.825-0.003,4.816,1.144,4.915-2.14
			c0.102-3.373-2.919-2.295-4.747-2.308C171.37,190.446,156.129,190.485,140.888,190.485z M133.813,218.064
			c12.946,0,25.892,0.046,38.842-0.056c1.805-0.016,4.816,1.21,4.954-2.064c0.148-3.383-2.896-2.325-4.721-2.328
			c-25.892-0.066-51.785-0.056-77.68-0.027c-1.982,0.007-4.885-0.602-5,2.305c-0.132,3.366,3.008,2.094,4.763,2.107
			C107.917,218.117,120.867,218.064,133.813,218.064z M123.477,162.841c-9.323,0-18.653-0.069-27.97,0.049
			c-2.11,0.03-5.178-1.368-5.244,3.008c-0.063,4.063,2.564,3.425,4.964,3.429c18.837,0.013,37.675,0.016,56.512-0.003
			c2.176,0,4.501,0.661,4.593-3.123c0.102-4.218-2.571-3.34-4.889-3.347C142.121,162.824,132.8,162.841,123.477,162.841z
			 M109.272,240.34c5.517,0,11.03-0.046,16.546,0.013c4.816,0.053,2.916-3.593,2.949-5.746c0.03-2.173,1.765-5.714-3.034-5.674
			c-10.655,0.095-21.303,0.108-31.955,0c-5.069-0.056-3.231,3.639-3.383,6.052c-0.155,2.436-1.039,5.589,3.475,5.405
			C98.998,240.183,104.137,240.34,109.272,240.34z"/>
		<path fill-rule="evenodd" clip-rule="evenodd" fill="#FFFFFF" d="M31.743,380.69c0-22.523,0.122-45.049-0.099-67.568
			c-0.039-4.382,1.302-5.411,5.513-5.388c33.02,0.168,66.043,0.177,99.062-0.013c4.382-0.027,5.365,1.243,5.346,5.457
			c-0.148,45.049-0.165,90.097,0.013,135.143c0.02,4.563-1.262,5.648-5.707,5.628c-32.829-0.191-65.661-0.194-98.491,0
			c-4.501,0.02-5.786-1.144-5.74-5.694C31.871,425.736,31.743,403.213,31.743,380.69z M99.985,343.982
			c-0.293,0.375-0.585,0.75-0.878,1.124c0.197,0.132,0.391,0.266,0.588,0.401c0.131-0.477,0.263-0.947,0.388-1.427
			c0.164-0.2,0.322-0.404,0.483-0.605C100.373,343.647,100.179,343.811,99.985,343.982z M72.57,345.139
			c-0.375-0.381-0.749-0.766-1.124-1.154c-0.339-2.86-2.561-2.291-4.356-2.298c-7.775-0.046-15.553-0.053-23.335,0.007
			c-1.338,0.01-3.005-0.526-4.56,2.39c11.233,0,21.694,0,32.155-0.003c0.381,0.381,0.759,0.756,1.144,1.134
			c0.279,0.631,0.562,1.256,0.848,1.877c0.237-0.151,0.48-0.299,0.72-0.454C73.566,346.139,73.067,345.639,72.57,345.139z
			 M110.216,404.617c1.364,5.335,2.725,10.675,4.103,16.007c3.278,12.723,3.281,12.621-9.77,12.769
			c-5.481,0.063-11.072-0.799-16.467,1.411c9.747,0.815,19.488,0.848,29.229,0.782c2.009-0.016,1.742-1.427,1.404-2.87
			c-1.953-8.314-3.85-16.635-5.75-24.962c-0.355-1.562-0.858-2.949-2.755-3.136c2.124-4.422,5.688-7.963,7.351-12.726
			c1.184-3.389,0.819-4.981-3.041-5.191c-3.419-0.191-6.825-0.651-10.221-1.105c-2.179-0.286-3.81-0.253-5.211,2.097
			c-1.411,2.38-1.331,4.037,0.296,6.108c2.232,2.84,4.32,5.812,6.338,8.817C106.852,404.308,107.996,405.557,110.216,404.617z
			 M87.982,413.927c1.236-0.207,3.892-0.49,6.47-1.105c9.255-2.226,9.481-2.883,3.978-10.481c-1.118-1.542-2.314-3.038-3.294-4.665
			c-1.509-2.508-2.998-3.544-6.417-2.738c-8.34,1.972-17.707-5.457-16.852-13.966c0.539-5.303-1.88-6.93-5.467-8.781
			c-2.022-1.049-4.119-2.058-5.891-3.455c-3.6-2.834-5.05-1.335-6.171,2.383C47.91,392.368,64.246,414.128,87.982,413.927z
			 M88.735,358.102c-0.947,4.487-0.168,8.939,5.964,11.177c1.996,0.726,3.938,2.794,4.326,5.076c0.934,5.467,5.01,5.842,9.182,6.263
			c2.459,0.246,5.033-0.007,7.364,0.654c3.771,1.075,4.09-0.668,4.07-3.679c-0.059-10.648-8.86-22.881-20.051-27.609
			C89.225,345.606,88.735,345.925,88.735,358.102z M84.014,358.572c0-2.709-0.092-4.231,0.02-5.74
			c0.348-4.704-1.338-6.118-6.049-4.576c-5.299,1.739-10.227,3.968-14.422,7.64c-5.122,4.481-5.02,5.51,0.638,8.833
			c2.452,1.43,4.971,2.758,7.344,4.307c2.498,1.631,4.369,1.026,7.157-0.085C84.681,366.564,84.283,362.145,84.014,358.572z
			 M79.786,415.659c-1.864,0.201-1.769,1.72-1.864,2.64c-0.536,5.161-3.541,6.227-8.229,5.977c-6.66-0.365-13.35-0.151-20.027-0.039
			c-1.351,0.017-3.675-0.884-3.882,1.118c-0.257,2.446,2.196,2.114,3.797,2.124c8.012,0.059,16.027,0.023,24.035,0.033
			c1.996,0,4.02-0.118,4.432-2.574C78.563,421.863,80.125,418.951,79.786,415.659z M133.629,341.185
			c-0.02-0.332-0.039-0.664-0.056-0.99c-10.52,0-21.033,0-31.547,0c0.016,0.326,0.033,0.658,0.049,0.99
			C112.592,341.185,123.116,341.185,133.629,341.185z"/>
		<path fill-rule="evenodd" clip-rule="evenodd" fill="#FFFFFF" d="M399.756,204.589c22.227,3.554,39.434,22.743,40.423,45.072
			c1.062,23.923-13.929,44.917-36.058,50.48c-1.45,0.365-2.942,0.868-4.461,0.224C399.69,268.442,399.72,236.517,399.756,204.589z"
			/>
		<path fill-rule="evenodd" clip-rule="evenodd" fill="#0094D9" d="M399.756,204.589c-0.036,31.928-0.066,63.853-0.095,95.775
			c-10.244,2.469-20.067,1.532-29.364-3.642c0-29.308-0.003-58.616-0.007-87.924C379.554,203.481,389.479,202.8,399.756,204.589z"/>
		<path fill-rule="evenodd" clip-rule="evenodd" fill="#404041" d="M174.68,257.005c-14.202,9.313-28.401,18.63-42.599,27.944
			c0.164,0.588,0.322,1.177,0.483,1.762c7.127,0,14.248-0.003,21.375,0.003c10.855,0.007,13.535,2.62,13.568,13.416
			c0.036,13.35,0.279,26.714-0.122,40.051c-0.171,5.609,1.098,7.377,7.127,7.358c68.853-0.243,137.714-0.158,206.573-0.151
			c12.401,0,24.798,0.026,37.195,0.039c-1.463,1.907-3.534,0.95-5.286,0.95c-80.274,0.053-160.555,0.049-240.833,0.026
			c-1.894,0-3.794-0.197-5.684-0.414c-9.011-1.003-9.011-1.016-9.011-10.425c0-11.628,0.006-23.259-0.003-34.893
			c-0.006-9.13-2.761-12.147-11.707-12.273c-10.28-0.148-20.573-0.042-30.86-0.042c-14.689,0-29.371-0.03-44.049,0.036
			c-2.64,0.013-4.685-0.181-3.764-3.649c16.362-0.01,32.727-0.122,49.082,0.039c4.021,0.036,7.289-1.151,10.622-3.245
			c15.432-9.698,30.232-20.393,46.18-29.266C173.533,255.183,174.108,256.094,174.68,257.005z"/>
		<path fill-rule="evenodd" clip-rule="evenodd" fill="#FFFFFF" d="M370.29,208.797c0.003,29.308,0.007,58.616,0.007,87.924
			c-6.96-2.015-12.184-6.345-16.283-12.174c0.003-21.198,0.003-42.406,0.003-63.607C358.12,215.112,363.393,210.868,370.29,208.797z
			"/>
		<path fill-rule="evenodd" clip-rule="evenodd" fill="#0094D9" d="M347.639,316.348c-0.072,5.145-0.263,10.296-0.168,15.438
			c0.046,2.508-0.855,3.133-3.288,3.301c-12.949,0.881-12.923,0.956-12.949-11.963c-0.023-13.354-0.089-26.711-0.135-40.072
			c5.069,7.177,9.958,14.498,16.566,20.429C347.655,307.767,347.646,312.054,347.639,316.348z"/>
		<path fill-rule="evenodd" clip-rule="evenodd" fill="#0094D9" d="M354.017,220.941c0,21.201,0,42.409-0.003,63.607
			C337.773,267.837,337.776,237.378,354.017,220.941z"/>
		<path fill-rule="evenodd" clip-rule="evenodd" fill="#FFFFFF" d="M434.547,171.145c12.207-9.001,16.375-21.378,13.17-35.672
			c-3.409-15.225-13.87-23.973-29.111-26.902c-12.42-2.39-26.422,3.777-33.562,14.587c-1.667,0.717-3.33,0.95-4.977-0.046
			c8.919-14.294,24.933-21.352,41.12-18.121c16.138,3.218,28.042,15.655,31.1,32.487c2.656,14.646-4.616,30.442-17.759,38.543
			C434.531,174.396,434.538,172.772,434.547,171.145z"/>
		<path fill-rule="evenodd" clip-rule="evenodd" fill="#FFFFFF" d="M418.495,326.798c-12.595,3.771-25.413,5.668-38.582,4.52
			c0.003-4.356,0.02-8.718,0.026-13.077c13.091,1.834,25.787,0.302,38.556-5.004C418.495,318.129,418.495,322.465,418.495,326.798z"
			/>
		<path fill-rule="evenodd" clip-rule="evenodd" fill="#0094D9" d="M363.511,192.303c-0.016-7.193,0.063-14.386-0.099-21.576
			c-0.059-2.699,0.855-3.468,3.551-3.613c12.687-0.684,12.67-0.779,12.69,12.091c0.006,2.646,0.122,5.293,0.184,7.939
			C374.399,188.865,368.955,190.584,363.511,192.303z"/>
		<path fill-rule="evenodd" clip-rule="evenodd" fill="#0094D9" d="M379.939,318.241c-0.006,4.359-0.023,8.722-0.026,13.077
			c-0.187,2.157-0.45,4.202-3.501,3.722c-0.921-0.145-1.88-0.023-2.824-0.023c-9.774,0.023-9.774,0.023-10.349-9.258
			c0.033-4.126,0.069-8.248,0.102-12.374C368.873,315.003,374.406,316.624,379.939,318.241z"/>
		<path fill-rule="evenodd" clip-rule="evenodd" fill="#0094D9" d="M331.34,222.775c-0.033-7.026,0.023-14.051-0.138-21.073
			c-0.066-2.673,0.819-3.784,3.57-3.626c3.028,0.171,6.095,0.26,9.106-0.026c3.38-0.325,3.666,1.706,3.774,4.126
			C341.435,208.428,335.899,215.214,331.34,222.775z"/>
		<path fill-rule="evenodd" clip-rule="evenodd" fill="#FFFFFF" d="M363.34,313.385c-0.033,4.126-0.069,8.248-0.102,12.374
			c-5.198-3.136-10.398-6.276-15.599-9.412c0.007-4.294,0.017-8.581,0.026-12.867C352.886,306.781,358.113,310.085,363.34,313.385z"
			/>
		<path fill-rule="evenodd" clip-rule="evenodd" fill="#E7E7E7" d="M90.675,462.858c-0.664,2.255-1.953,3.807-4.405,3.561
			c-2.101-0.217-3.432-1.614-3.396-3.771c0.036-2.466,1.696-3.879,3.968-3.849C89.208,458.834,90.342,460.629,90.675,462.858z"/>
		<path fill-rule="evenodd" clip-rule="evenodd" fill="#0094D9" d="M299.168,281.079c0-16,0.108-32.004-0.076-48.001
			c-0.046-3.744,0.608-5.352,4.889-5.306c11.371,0.122,11.371-0.099,11.371,11.266c0,30.097-0.125,60.191,0.128,90.288
			c0.039,4.931-1.424,5.96-6.039,5.812c-10.263-0.342-10.273-0.092-10.273-10.632C299.168,310.032,299.168,295.554,299.168,281.079z
			"/>
		<path fill-rule="evenodd" clip-rule="evenodd" fill="#0094D9" d="M251.029,290.314c0,13.17-0.204,26.339,0.112,39.493
			c0.108,4.454-1.322,5.395-5.49,5.316c-10.934-0.207-10.941-0.01-10.941-11.194c0-24.423,0.122-48.846-0.105-73.265
			c-0.043-4.563,1.295-5.802,5.769-5.7c10.652,0.24,10.655,0.013,10.655,10.438C251.029,267.042,251.029,278.679,251.029,290.314z"
			/>
		<path fill-rule="evenodd" clip-rule="evenodd" fill="#0094D9" d="M283.283,297.737c0,11.069-0.112,22.135,0.069,33.2
			c0.056,3.261-0.973,4.113-4.178,4.165c-12.394,0.207-12.394,0.326-12.394-12.022c0-18.89,0.135-37.787-0.096-56.677
			c-0.056-4.343,1.259-5.464,5.484-5.404c11.111,0.161,11.115-0.036,11.115,10.973C283.283,280.563,283.283,289.15,283.283,297.737z
			"/>
		<path fill-rule="evenodd" clip-rule="evenodd" fill="#0094D9" d="M186.397,307.632c-0.003,7.824-0.102,15.645,0.043,23.463
			c0.059,2.893-0.799,3.879-3.84,4.004c-12.529,0.513-12.519,0.624-12.519-11.878c0-12.778,0.158-25.563-0.092-38.335
			c-0.085-4.142,0.858-5.652,5.326-5.576c11.079,0.194,11.082-0.039,11.082,11.155C186.397,296.192,186.397,301.909,186.397,307.632
			z"/>
		<path fill-rule="evenodd" clip-rule="evenodd" fill="#0094D9" d="M202.15,314.013c0-5.901,0.099-11.805-0.043-17.7
			c-0.059-2.679,0.865-3.531,3.587-3.705c13.271-0.838,13.265-0.924,13.265,12.269c0,8.755-0.108,17.513,0.056,26.27
			c0.056,2.979-0.927,3.827-3.889,3.945c-12.982,0.529-12.976,0.631-12.976-12.509C202.15,319.727,202.15,316.87,202.15,314.013z"/>
		<path fill-rule="evenodd" clip-rule="evenodd" fill="#404041" d="M149.307,182.608c-18.124,0-36.238,0.036-54.359-0.049
			c-1.775-0.013-4.905,1.196-4.741-2.176c0.138-2.916,3.038-2.295,5.02-2.298c36.245-0.026,72.483-0.033,108.721,0.026
			c1.841,0.003,4.872-0.996,4.701,2.38c-0.168,3.264-3.166,2.055-4.984,2.068C185.545,182.645,167.425,182.608,149.307,182.608z"/>
		<path fill-rule="evenodd" clip-rule="evenodd" fill="#404041" d="M146.204,206.548c-16.987,0-33.963,0.023-50.943-0.036
			c-1.91-0.006-4.954,0.806-4.882-2.278c0.075-3.024,3.11-2.14,5.02-2.143c33.96-0.053,67.926-0.049,101.883,0.003
			c1.706,0.003,4.373-0.901,4.514,2.002c0.168,3.475-2.831,2.394-4.652,2.403C180.164,206.578,163.181,206.548,146.204,206.548z"/>
		<path fill-rule="evenodd" clip-rule="evenodd" fill="#404041" d="M140.888,190.485c15.241,0,30.482-0.04,45.723,0.043
			c1.828,0.013,4.849-1.065,4.747,2.308c-0.099,3.284-3.09,2.137-4.915,2.14c-30.291,0.069-60.579,0.053-90.87,0.049
			c-0.953,0-1.913,0.01-2.853-0.089c-1.46-0.151-2.61-0.815-2.643-2.443c-0.033-1.89,1.433-1.979,2.804-1.986
			c5.52-0.026,11.046-0.023,16.576-0.023C119.93,190.482,130.411,190.485,140.888,190.485z"/>
		<path fill-rule="evenodd" clip-rule="evenodd" fill="#404041" d="M366.102,159.408c-14.288,12.44-28.526,24.933-42.859,37.317
			c-12.483,10.776-25.07,21.411-37.599,32.125c-1.43,1.226-2.59,2.821-4.57,3.278c-0.878-0.595-1.749-1.193-2.623-1.789
			c12.706-11.154,25.343-22.394,38.148-33.441c14.965-12.906,30.067-25.646,45.131-38.441c0.714-0.608,1.578-1.036,2.377-1.545
			C364.77,157.748,365.434,158.58,366.102,159.408z"/>
		<path fill-rule="evenodd" clip-rule="evenodd" fill="#404041" d="M133.813,218.064c-12.946,0-25.896,0.053-38.842-0.062
			c-1.755-0.013-4.895,1.259-4.763-2.107c0.115-2.906,3.018-2.298,5-2.305c25.896-0.029,51.788-0.039,77.68,0.027
			c1.825,0.003,4.869-1.055,4.721,2.328c-0.138,3.274-3.15,2.048-4.954,2.064C159.705,218.11,146.759,218.064,133.813,218.064z"/>
		<path fill-rule="evenodd" clip-rule="evenodd" fill="#0094D9" d="M123.477,162.841c9.323,0,18.643-0.016,27.967,0.013
			c2.318,0.006,4.99-0.871,4.889,3.347c-0.092,3.784-2.416,3.123-4.593,3.123c-18.837,0.02-37.675,0.016-56.512,0.003
			c-2.4-0.003-5.027,0.635-4.964-3.429c0.066-4.376,3.133-2.979,5.244-3.008C104.824,162.771,114.154,162.841,123.477,162.841z"/>
		<path fill-rule="evenodd" clip-rule="evenodd" fill="#0094D9" d="M109.272,240.34c-5.135,0-10.274-0.158-15.402,0.049
			c-4.514,0.184-3.629-2.969-3.475-5.405c0.151-2.413-1.687-6.108,3.383-6.052c10.652,0.108,21.3,0.095,31.955,0
			c4.8-0.04,3.064,3.501,3.034,5.674c-0.033,2.153,1.867,5.799-2.949,5.746C120.302,240.294,114.788,240.34,109.272,240.34z
			 M109.758,236.26c3.413,0,6.822,0.01,10.237-0.003c1.042-0.003,1.811-0.342,1.828-1.585c0.01-1.233-0.723-1.624-1.785-1.624
			c-7.009-0.013-14.024-0.023-21.04-0.013c-1.22,0-2.272,0.247-2.101,1.877c0.141,1.315,1.147,1.342,2.058,1.351
			C102.559,236.3,106.159,236.28,109.758,236.26z"/>
		<path fill-rule="evenodd" clip-rule="evenodd" fill="#404041" d="M241.492,220.201c-8.363,14.231-17.296,28.095-26.721,41.649
			c-0.917-0.579-1.835-1.157-2.752-1.739c8.896-14.064,17.795-28.128,26.691-42.188
			C239.635,218.679,240.568,219.442,241.492,220.201z"/>
		<path fill-rule="evenodd" clip-rule="evenodd" fill="#0094D9" d="M278.45,230.34c0.874,0.595,1.745,1.193,2.623,1.789
			c1.624,3.462,2.12,6.891-0.953,9.81c-2.311,2.203-5.303,2.134-7.89,0.911c-3.524-1.663-4.247-4.957-3.662-8.603
			c0.848-1.059,1.703-2.114,2.551-3.166C273.466,229.899,275.912,229.633,278.45,230.34z"/>
		<path fill-rule="evenodd" clip-rule="evenodd" fill="#0094D9" d="M241.492,220.201c-0.924-0.759-1.858-1.522-2.781-2.278
			c-1.736-4.287-1.867-8.179,2.922-10.619c3.406-1.739,6.207-0.546,8.538,2.17c1.821,2.13,1.121,4.658,1.085,7.085
			c-0.753,0.894-1.499,1.785-2.252,2.679C246.624,220.517,244.089,220.609,241.492,220.201z"/>
		<path fill-rule="evenodd" clip-rule="evenodd" fill="#0094D9" d="M366.102,159.408c-0.668-0.828-1.331-1.66-1.996-2.495
			c-1.249-5.917,0.477-9.429,4.951-10.066c4.468-0.635,8.107,2.222,8.219,6.456c0.112,4.119-2.896,7.045-7.282,6.907
			C368.692,160.171,367.397,159.688,366.102,159.408z"/>
		<path fill-rule="evenodd" clip-rule="evenodd" fill="#0094D9" d="M174.68,257.005c-0.572-0.911-1.147-1.821-1.713-2.732
			c-0.513-4.113-0.013-7.831,4.714-9.051c4.76-1.223,7.604,1.154,9.057,5.55c-0.348,1.667-0.697,3.347-1.049,5.026
			C182.327,258.993,178.661,259.437,174.68,257.005z"/>
		<path fill-rule="evenodd" clip-rule="evenodd" fill="#0094D9" d="M212.02,260.111c0.917,0.582,1.834,1.16,2.752,1.739
			c2.278,5.766,1.476,9.399-2.463,11.108c-4.057,1.769-7.532-0.059-10.01-5.254c0.453-2.071,0.533-4.267,1.874-6.082
			C206.572,259.987,209.176,259.434,212.02,260.111z"/>
		<path fill-rule="evenodd" clip-rule="evenodd" fill="#404041" d="M249.004,219.238c0.753-0.894,1.499-1.785,2.252-2.679
			c6.621,4.836,13.242,9.678,19.863,14.521c-0.848,1.052-1.703,2.107-2.551,3.166C262.045,229.242,255.526,224.241,249.004,219.238z
			"/>
		<path fill-rule="evenodd" clip-rule="evenodd" fill="#404041" d="M204.172,261.624c-1.341,1.815-1.42,4.011-1.874,6.082
			c-0.316-3.261-3.077-3.965-5.349-5.253c-3.791-2.15-7.505-4.428-11.253-6.654c0.345-1.68,0.694-3.36,1.042-5.026
			C191.44,256.179,198.278,258.149,204.172,261.624z"/>
		<path fill-rule="evenodd" clip-rule="evenodd" fill="#404041" d="M87.982,413.927c-23.736,0.201-40.072-21.559-33.645-42.807
			c1.121-3.718,2.571-5.217,6.171-2.383c1.772,1.397,3.869,2.406,5.891,3.455c3.587,1.851,6.006,3.478,5.467,8.781
			c-0.855,8.508,8.511,15.938,16.852,13.966c3.419-0.806,4.908,0.23,6.417,2.738c0.98,1.627,2.176,3.123,3.294,4.665
			c5.503,7.597,5.276,8.255-3.978,10.481C91.874,413.437,89.218,413.72,87.982,413.927z"/>
		<path fill-rule="evenodd" clip-rule="evenodd" fill="#0094D9" d="M88.735,358.102c0-12.177,0.49-12.496,10.855-8.117
			c11.191,4.727,19.991,16.96,20.051,27.609c0.02,3.011-0.299,4.754-4.07,3.679c-2.331-0.661-4.905-0.408-7.364-0.654
			c-4.172-0.421-8.248-0.796-9.182-6.263c-0.388-2.281-2.331-4.349-4.326-5.076C88.567,367.041,87.788,362.589,88.735,358.102z"/>
		<path fill-rule="evenodd" clip-rule="evenodd" fill="#0094D9" d="M84.014,358.572c0.269,3.573,0.667,7.992-5.313,10.379
			c-2.788,1.111-4.658,1.716-7.157,0.085c-2.374-1.548-4.892-2.877-7.344-4.307c-5.658-3.324-5.76-4.352-0.638-8.833
			c4.195-3.672,9.123-5.901,14.422-7.64c4.711-1.542,6.398-0.128,6.049,4.576C83.922,354.341,84.014,355.863,84.014,358.572z"/>
		<path fill-rule="evenodd" clip-rule="evenodd" fill="#404041" d="M110.209,404.614c-2.212,0.944-3.357-0.306-4.487-1.996
			c-2.018-3.005-4.106-5.977-6.338-8.817c-1.627-2.071-1.706-3.728-0.296-6.108c1.4-2.35,3.031-2.383,5.211-2.097
			c3.396,0.453,6.802,0.914,10.221,1.105c3.86,0.21,4.225,1.802,3.041,5.191c-1.663,4.763-5.227,8.304-7.351,12.726V404.614z"/>
		<path fill-rule="evenodd" clip-rule="evenodd" fill="#A8D1D5" d="M133.629,341.185c-10.513,0-21.037,0-31.553,0
			c-0.016-0.332-0.033-0.664-0.049-0.99c10.514,0,21.027,0,31.547,0C133.589,340.52,133.609,340.853,133.629,341.185z"/>
		<path fill-rule="evenodd" clip-rule="evenodd" fill="#A8D1D5" d="M71.35,344.084c-10.461,0-20.922,0-32.155,0
			c1.555-2.916,3.222-2.38,4.56-2.39c7.781-0.059,15.56-0.053,23.335-0.007c1.795,0.007,4.017-0.562,4.356,2.298L71.35,344.084z"/>
		<path fill-rule="evenodd" clip-rule="evenodd" fill="#A8D1D5" d="M72.57,345.139c0.497,0.5,0.996,0.999,1.493,1.499
			c-0.24,0.155-0.483,0.302-0.72,0.454c-0.286-0.621-0.569-1.246-0.848-1.877L72.57,345.139z"/>
		<path fill-rule="evenodd" clip-rule="evenodd" fill="#A8D1D5" d="M100.083,344.084c-0.125,0.477-0.257,0.947-0.388,1.424
			c-0.197-0.135-0.392-0.27-0.588-0.401c0.293-0.375,0.585-0.749,0.878-1.124L100.083,344.084z"/>
		<path fill-rule="evenodd" clip-rule="evenodd" fill="#A8D1D5" d="M72.495,345.215c-0.385-0.378-0.763-0.753-1.144-1.134
			c0,0.003,0.096-0.095,0.096-0.095c0.375,0.388,0.749,0.773,1.124,1.154L72.495,345.215z"/>
		<path fill-rule="evenodd" clip-rule="evenodd" fill="#A8D1D5" d="M99.985,343.982c0.194-0.171,0.388-0.335,0.582-0.506
			c-0.161,0.2-0.319,0.404-0.483,0.608L99.985,343.982z"/>
		<path fill-rule="evenodd" clip-rule="evenodd" fill="#FFFFFF" d="M488.482,80.771c-6.394,0.089-11.404-4.616-11.602-10.885
			c-0.197-6.263,5.244-11.818,11.509-11.759c6.121,0.056,11.184,5.188,11.23,11.375C499.666,75.837,494.876,80.689,488.482,80.771z
			 M495.58,69.328c-0.303-4.27-2.706-7.022-7.17-7.061c-4.418-0.039-7.111,2.469-7.318,7.074c-0.197,4.323,3.258,8.064,7.384,7.67
			C492.795,76.6,495.429,74.167,495.58,69.328z"/>
		<path fill-rule="evenodd" clip-rule="evenodd" fill="#FFFFFF" d="M109.758,236.27c-3.6,0.01-7.2,0.03-10.803-0.006
			c-0.911-0.01-1.916-0.036-2.058-1.351c-0.171-1.63,0.881-1.877,2.101-1.877c7.016-0.01,14.031,0,21.04,0.013
			c1.062,0,1.795,0.391,1.785,1.624c-0.016,1.243-0.786,1.582-1.828,1.585C116.58,236.27,113.171,236.26,109.758,236.27z"/>
	</g>
</g>
</svg>
