<?xml version="1.0" encoding="utf-8"?>
<!-- Generator: Adobe Illustrator 18.1.1, SVG Export Plug-In . SVG Version: 6.00 Build 0)  -->
<!DOCTYPE svg PUBLIC "-//W3C//DTD SVG 1.1//EN" "http://www.w3.org/Graphics/SVG/1.1/DTD/svg11.dtd">
<svg version="1.1" id="Layer_1" xmlns="http://www.w3.org/2000/svg" xmlns:xlink="http://www.w3.org/1999/xlink" x="0px" y="0px"
	 viewBox="0 0 125 100" enable-background="new 0 0 125 100" xml:space="preserve">
<path fill="#AEDEE3" d="M105.6,81.8c-2.5,2.5-6.6,2.5-9.1,0L83,68.2V74c0,1.7-1.3,3-3,3H34.7c-1.7,0-3-1.3-3-3V55h-1.2
	c-1.7,0-3,1.3-3,3V60c0,1.7-1.3,3-3,3h-3.9c-1.7,0-3-1.3-3-3V31.1c0-1.7,1.3-3,3-3h11.2v-8.7c0-1.7,1.3-3,3-3H80c1.7,0,3,1.3,3,3
	v8.7h11.8c1.7,0,3,1.3,3,3V60c0,1.3-0.9,2.4-2.1,2.8l9.9,9.9C108.1,75.2,108.1,79.3,105.6,81.8z"/>
<path fill="#546E7A" d="M91.7,38c1.9,0,3.4-1.5,3.4-3.4c0-1.9-1.5-3.4-3.4-3.4c-1.9,0-3.4,1.5-3.4,3.4C88.3,36.5,89.9,38,91.7,38z
	 M91.7,33.7c0.5,0,0.9,0.4,0.9,0.9c0,0.5-0.4,0.9-0.9,0.9s-0.9-0.4-0.9-0.9C90.8,34.1,91.2,33.7,91.7,33.7z M91.7,45.8
	c1.9,0,3.4-1.5,3.4-3.4S93.6,39,91.7,39c-1.9,0-3.4,1.5-3.4,3.4S89.9,45.8,91.7,45.8z M91.7,41.5c0.5,0,0.9,0.4,0.9,0.9
	s-0.4,0.9-0.9,0.9s-0.9-0.4-0.9-0.9S91.2,41.5,91.7,41.5z M32.9,34.6c0,0.7-0.6,1.2-1.2,1.2h-8.2c-0.7,0-1.2-0.6-1.2-1.2
	s0.6-1.2,1.2-1.2h8.2C32.4,33.3,32.9,33.9,32.9,34.6z M39.1,66.8c0-0.7,0.6-1.2,1.2-1.2h26.5c0.7,0,1.2,0.6,1.2,1.2
	s-0.6,1.2-1.2,1.2H40.4C39.7,68.1,39.1,67.5,39.1,66.8z M70.6,71.9c0,0.7-0.6,1.2-1.2,1.2h-29c-0.7,0-1.2-0.6-1.2-1.2
	s0.6-1.2,1.2-1.2h29C70,70.6,70.6,71.2,70.6,71.9z M106.5,71.8l-8.8-8.8c0.8-0.8,1.3-1.9,1.3-3.1V31.1c0-2.3-1.9-4.2-4.3-4.2H84.2
	v-7.5c0-2.3-1.9-4.3-4.3-4.3H34.7c-2.3,0-4.3,1.9-4.3,4.3v7.5h-9.9c-2.4,0-4.3,1.9-4.3,4.2V60c0,2.3,1.9,4.2,4.3,4.2h3.9
	c2.4,0,4.3-1.9,4.3-4.2V58c0-1,0.8-1.7,1.7-1.7V74c0,2.3,1.9,4.3,4.3,4.3H80c2.3,0,4.3-1.9,4.3-4.3v-2.7l11.4,11.4
	c1.4,1.4,3.4,2.2,5.4,2.2c0,0,0,0,0,0c2,0,4-0.8,5.4-2.2c1.4-1.4,2.2-3.4,2.2-5.4C108.8,75.2,108,73.3,106.5,71.8z M32.9,19.4
	c0-1,0.8-1.8,1.8-1.8H80c1,0,1.8,0.8,1.8,1.8v7.5H32.9V19.4z M30.5,53.7C30.4,53.7,30.4,53.7,30.5,53.7c-2.4,0-4.3,1.9-4.3,4.2V60
	c0,1-0.8,1.8-1.8,1.8h-3.9c-1,0-1.8-0.8-1.8-1.8V31.1c0-1,0.8-1.8,1.8-1.8h9.9h2.5h48.8h2.5h10.5c1,0,1.8,0.8,1.8,1.8V60
	c0,0.5-0.2,1-0.6,1.3l-7.2-7.2c0.3-1,0.1-2.2-0.7-3l-1.5-1.5c0.8-6.4-2.5-12.3-8.4-15.3c-0.7-0.3-1.4-0.6-2.1-0.8
	c-3.4-1-6.8-0.8-10,0.4c-0.9,0.4-1.6,1.1-1.8,2.1c-0.2,1,0.1,2,0.8,2.6l6.6,6.6L69,47.9l-6.7-6.7c-0.7-0.7-1.7-1-2.6-0.8
	c-1,0.2-1.7,0.8-2.1,1.7c-1.6,3.8-1.5,7.9,0,11.6H32.9H30.5z M81.7,74c0,1-0.8,1.8-1.8,1.8H34.7c-1,0-1.8-0.8-1.8-1.8V56.2h25.9
	c0.6,0.9,1.2,1.7,2,2.4c0.7,0.7,1.5,1.4,2.4,1.9H40.4c-0.7,0-1.2,0.6-1.2,1.2s0.6,1.2,1.2,1.2h30.2c0.1,0,0.2,0,0.3-0.1
	c0.9,0,1.8,0,2.8-0.1l1.3,1.3c0.8,0.8,2,1,3,0.7l3.8,3.8V74z M104.7,80.9c-1,1-2.3,1.5-3.7,1.5c-1.4,0-2.7-0.5-3.7-1.5L84.2,67.7
	l-2.5-2.5L79,62.5c-0.2-0.2-0.6-0.4-0.9-0.4c-0.3,0-0.6,0.1-0.8,0.3c-0.2,0.2-0.4,0.2-0.6,0l-1.8-1.8c-0.3-0.3-0.7-0.4-1.1-0.3
	c-4.1,0.7-8.3-0.6-11.2-3.5c-0.2-0.2-0.4-0.4-0.6-0.7c-0.7-0.8-1.2-1.6-1.7-2.5c-1.7-3.2-1.9-7.1-0.4-10.6c0.1-0.1,0.2-0.2,0.4-0.2
	c0.1,0,0.2,0,0.3,0.1l7.6,7.6c0.5,0.5,1.3,0.5,1.8,0l4.4-4.4c0.2-0.2,0.4-0.6,0.4-0.9s-0.1-0.7-0.4-0.9l-7.5-7.5
	c-0.1-0.1-0.1-0.2-0.1-0.4c0-0.1,0.1-0.2,0.3-0.3c2.6-1,5.5-1.1,8.4-0.3c0.6,0.2,1.2,0.4,1.7,0.7c5.1,2.6,7.9,7.9,7,13.4
	c-0.1,0.4,0.1,0.8,0.4,1.1l1.9,1.9c0.2,0.2,0.2,0.4,0,0.6C86.1,53.7,86,54,86,54.2c-0.1,0.4,0,0.8,0.3,1.1l1.9,1.9l4.7,4.6l2.5,2.4
	l9.4,9.4c1,1,1.5,2.3,1.5,3.6C106.3,78.6,105.7,79.9,104.7,80.9z M101.4,73.6c-1.9,0-3.4,1.5-3.4,3.4s1.5,3.4,3.4,3.4
	c1.9,0,3.4-1.5,3.4-3.4S103.3,73.6,101.4,73.6z M101.4,77.9c-0.5,0-0.9-0.4-0.9-0.9c0-0.5,0.4-0.9,0.9-0.9s0.9,0.4,0.9,0.9
	C102.3,77.5,101.9,77.9,101.4,77.9z"/>
</svg>
