<?xml version="1.0" ?><!DOCTYPE svg  PUBLIC '-//W3C//DTD SVG 1.1//EN'  'http://www.w3.org/Graphics/SVG/1.1/DTD/svg11.dtd'><svg id="Layer_1" style="enable-background:new 0 0 75 75;" version="1.1" viewBox="0 0 75 75" xml:space="preserve" xmlns="http://www.w3.org/2000/svg" xmlns:xlink="http://www.w3.org/1999/xlink"><style type="text/css">
	.st0{fill:#EC008C;}
	.st1{fill:#FFFFFF;}
	.st2{fill:#00AAAD;}
	.st3{fill:#F9A01B;}
	.st4{fill:#B2D235;}
</style><g><path class="st2" d="M62.5,73.5h-50c-6.1,0-11-4.9-11-11v-50c0-6.1,4.9-11,11-11h50c6.1,0,11,4.9,11,11v50   C73.5,68.6,68.6,73.5,62.5,73.5z"/><g><path class="st1" d="M30.3,25.5l0.9-0.9c-2.6-2.6-6.9-2.6-9.6,0l0.9,0.9C24.6,23.4,28.1,23.4,30.3,25.5z"/><path class="st1" d="M24.2,27.3c1.2-1.2,3.1-1.2,4.2,0l0.9-0.9c-1.7-1.7-4.4-1.7-6,0L24.2,27.3z"/><path class="st1" d="M52.6,40.8H27.1V29.1c0-0.4-0.3-0.7-0.7-0.7c-0.4,0-0.7,0.3-0.7,0.7v11.7h-3.2c-1.3,0-2.4,1.1-2.4,2.4V50    c0,1.3,1.1,2.4,2.4,2.4h30.2c1.3,0,2.4-1.1,2.4-2.4v-6.7C55,41.9,53.9,40.8,52.6,40.8z M27.1,48.5h-3.3v-3.8h3.3V48.5z M34,48.5    h-3.3v-3.8H34V48.5z M40.9,48.5h-3.3v-3.8h3.3V48.5z M48.4,47.7c-0.6,0-1.1-0.5-1.1-1.1c0-0.6,0.5-1.1,1.1-1.1    c0.6,0,1.1,0.5,1.1,1.1C49.4,47.2,49,47.7,48.4,47.7z"/></g></g></svg>